Coordinates
version=1
nRows=12
nColumns=42
inDegrees=yes

Units are S.I. units (second, meters, Newtons, ...)
If the header above contains a line with 'inDegrees', this indicates whether rotational values are in degrees (yes) or radians (no).

endheader
time	pelvis_tilt	pelvis_list	pelvis_rotation	pelvis_tx	pelvis_ty	pelvis_tz	hip_flexion_r	hip_adduction_r	hip_rotation_r	knee_angle_r	knee_adduction_r	knee_angle_r_beta	ankle_angle_r	subtalar_angle_r	mtp_angle_r	hip_flexion_l	hip_adduction_l	hip_rotation_l	knee_angle_l	knee_adduction_l	knee_angle_l_beta	ankle_angle_l	subtalar_angle_l	mtp_angle_l	lumbar_extension	lumbar_bending	lumbar_rotation	arm_flex_r	arm_add_r	arm_rot_r	elbow_flex_r	pro_sup_r	wrist_flex_r	wrist_dev_r	arm_flex_l	arm_add_l	arm_rot_l	elbow_flex_l	pro_sup_l	wrist_flex_l	wrist_dev_l
      0.00000000	     14.70964286	     -2.05199707	      6.98102619	     -2.59484572	      0.88044511	      0.17416263	    -27.16421259	     10.14120179	    -25.33639931	      1.44444460	     -0.13680911	      0.02521031	     23.03525489	     38.63866350	     -9.50444768	     11.76783399	     -1.83122420	    -16.42966052	     26.81865920	    -10.17333021	      0.46807390	     20.41626504	     22.44707148	     -9.50444768	    -40.81334267	      6.53597711	      2.17943531	     10.38763702	    -18.29485767	      8.20653464	     46.90849980	     90.00000001	      0.00000000	      0.00000000	      1.97212763	    -12.32328786	     -1.61141715	     46.14798268	     90.00000001	      0.00000000	      0.00000000
      0.01000000	     14.52883841	     -2.36704779	      7.20860026	     -2.58348652	      0.87797985	      0.17325606	    -27.86621437	     10.61057818	    -26.00203952	      1.31056904	     -0.02978439	      0.02287374	     23.23908755	     38.74200242	     -9.43976631	     12.79207210	     -1.82642978	    -15.66309084	     24.55836792	     -9.24266763	      0.42862438	     19.28823487	     23.50398493	     -9.43976631	    -40.53068500	      6.89830040	      2.29642732	     10.82931426	    -18.49710693	      7.61509418	     47.23066871	     90.00000001	      0.00000000	      0.00000000	      1.32580668	    -12.06178530	     -2.09703542	     45.65948375	     90.00000001	      0.00000000	      0.00000000
      0.02000000	     14.30273002	     -2.70423709	      7.43195117	     -2.57209986	      0.87546832	      0.17233516	    -28.44712371	     11.09093542	    -26.59901935	      1.28968094	      0.02620655	      0.02250918	     23.43521914	     38.80758401	     -9.38786812	     13.78740796	     -1.85321228	    -14.88843426	     22.37473684	     -8.30066332	      0.39051283	     18.25326997	     24.63283061	     -9.38786812	    -40.20531479	      7.26864068	      2.39951841	     11.21636738	    -18.64232865	      6.89510562	     47.61346796	     90.00000001	      0.00000000	      0.00000000	      0.71474502	    -11.78542503	     -2.62227751	     45.09328210	     90.00000001	      0.00000000	      0.00000000
      0.03000000	     14.03214529	     -3.09527378	      7.61196030	     -2.56063426	      0.87290699	      0.17147354	    -28.89320630	     11.62277385	    -27.05350455	      1.38455580	     -0.05519993	      0.02416506	     23.59717085	     38.84996011	     -9.34429299	     14.77615694	     -1.94510917	    -14.20416183	     20.33096907	     -7.43321214	      0.35484235	     17.39635332	     25.77248363	     -9.34429299	    -39.82645113	      7.65697100	      2.54505307	     11.54710127	    -18.76320937	      6.11877713	     47.98243810	     90.00000001	      0.00000000	      0.00000000	      0.13515895	    -11.48739913	     -3.15014464	     44.48127536	     90.00000001	      0.00000000	      0.00000000
      0.04000000	     13.70991169	     -3.51653982	      7.73771647	     -2.54910978	      0.87033597	      0.17067452	    -29.19754691	     12.15291032	    -27.37260563	      1.61261116	     -0.24797827	      0.02814537	     23.73984416	     38.89889445	     -9.29987657	     15.76099238	     -2.07767354	    -13.60429935	     18.47693562	     -6.65275397	      0.32248336	     16.71942005	     26.86850746	     -9.29987657	    -39.39336131	      8.03271302	      2.72172804	     11.81224838	    -18.84282699	      5.30788463	     48.31583512	     90.00000001	      0.00000000	      0.00000000	     -0.39975046	    -11.16419024	     -3.69629050	     43.80752700	     90.00000001	      0.00000000	      0.00000000
      0.05000000	     13.37184194	     -4.05354196	      7.79469961	     -2.53764265	      0.86783190	      0.17013246	    -29.35308660	     12.80101702	    -27.50235033	      2.00551991	     -0.64469110	      0.03500293	     23.86421980	     38.91878484	     -9.27458578	     16.76145976	     -2.40555500	    -13.02642373	     16.98164451	     -5.90549722	      0.29638561	     16.34374448	     27.75985509	     -9.27458578	    -38.96094082	      8.46807280	      2.98501577	     12.06303849	    -18.97618584	      4.75584960	     48.60180542	     90.00000001	      0.00000000	      0.00000000	     -0.91647713	    -10.89021413	     -4.03214251	     43.18263351	     90.00000001	      0.00000000	      0.00000000
      0.06000000	     13.03764315	     -4.38624548	      7.74697429	     -2.52587138	      0.86554013	      0.16948875	    -29.48528418	     13.08041547	    -27.68207798	      2.62018035	     -0.92388709	      0.04573077	     24.03882124	     38.94540064	     -9.21895443	     17.56004263	     -2.43483307	    -12.73803416	     15.54462004	     -5.49882194	      0.27130480	     15.88613127	     28.77505880	     -9.21895443	    -38.53444926	      8.65930433	      3.17569222	     12.18107413	    -18.93136918	      3.77379065	     48.91818429	     90.00000001	      0.00000000	      0.00000000	     -1.34494201	    -10.54889829	     -4.76683596	     42.34104498	     90.00000001	      0.00000000	      0.00000000
      0.07000000	     12.71427220	     -4.87371514	      7.63893943	     -2.51412029	      0.86332542	      0.16915272	    -29.55481923	     13.55149643	    -27.54933187	      3.24616176	     -1.41065504	      0.05665621	     24.04394745	     38.92838534	     -9.19061915	     18.44668874	     -2.75066461	    -12.51220678	     14.78283454	     -5.10210980	      0.25800914	     15.83748342	     28.90256709	     -9.19061915	    -38.12340692	      8.94800181	      3.39636660	     12.37493746	    -19.01296087	      3.49292889	     49.13999816	     90.00000001	      0.00000000	      0.00000000	     -1.91624940	    -10.36879816	     -4.90716472	     41.85198797	     90.00000001	      0.00000000	      0.00000000
      0.08000000	     12.49347093	     -5.10879194	      7.39806149	     -2.50193963	      0.86158633	      0.16868236	    -29.60869744	     13.55532644	    -27.63650960	      4.37455289	     -1.83580495	      0.07635035	     24.27378541	     38.99001741	     -9.13919076	     18.87754735	     -2.75661266	    -12.30912016	     13.90819336	     -4.93575537	      0.24274377	     15.67567086	     30.15571635	     -9.13919076	    -37.80924059	      8.94175401	      3.70581878	     12.27481473	    -18.95196305	      2.58695444	     49.45779810	     90.00000001	      0.00000000	      0.00000000	     -2.15887302	    -10.00941505	     -5.70393932	     40.82076032	     90.00000001	      0.00000000	      0.00000000
      0.09000000	     12.27657387	     -5.45362779	      7.12589044	     -2.48967507	      0.85996838	      0.16828402	    -29.64674210	     13.70235288	    -27.50288419	      5.42914580	     -2.41118879	      0.09475647	     24.21575606	     39.00785754	     -9.11427316	     19.38928068	     -2.95401934	    -12.09908326	     13.75216627	     -4.82445519	      0.24002058	     15.73576644	     30.42312401	     -9.11427316	    -37.50284007	      9.04156671	      3.97973433	     12.28458757	    -18.99249097	      2.28262828	     49.57493354	     90.00000001	      0.00000000	      0.00000000	     -2.59803410	     -9.79101665	     -5.95065692	     40.21976841	     90.00000001	      0.00000000	      0.00000000
      0.10000000	     12.08052811	     -5.68051585	      6.82723239	     -2.47703969	      0.85855762	      0.16777682	    -29.67806534	     13.62534710	    -27.40102238	      6.65667485	     -2.90332168	      0.11618089	     24.10269846	     39.01813683	     -9.09130810	     19.75740296	     -2.98001103	    -11.95832033	     13.87349424	     -4.96512531	      0.24213815	     15.76482147	     30.65782986	     -9.09130810	    -37.18611066	      9.01706576	      4.19356166	     12.18891232	    -18.99147767	      1.93041578	     49.71197396	     90.00000001	      0.00000000	      0.00000000	     -2.98128103	     -9.59414716	     -6.28020627	     39.46187478	     90.00000001	      0.00000000	      0.00000000
      0.11000000	     11.86637267	     -5.79766615	      6.56294411	     -2.46413770	      0.85731315	      0.16719550	    -29.71814234	     13.48386600	    -27.12304311	      7.80417609	     -3.43418687	      0.13620857	     23.86180165	     39.03795208	     -9.07826051	     20.04220370	     -2.85418432	    -11.63380518	     14.30269362	     -5.22823074	      0.24962910	     15.68636421	     30.69634924	     -9.07826051	    -36.83841591	      8.88402420	      4.25340823	     12.02065378	    -18.90467966	      1.75241098	     49.76066444	     90.00000001	      0.00000000	      0.00000000	     -3.42418659	     -9.46874104	     -6.46602740	     38.92768597	     90.00000001	      0.00000000	      0.00000000
